<?xml version="1.0" encoding="UTF-8"?>
<svg width="673px" height="128px" viewBox="0 0 673 128" version="1.1" xmlns="http://www.w3.org/2000/svg" xmlns:xlink="http://www.w3.org/1999/xlink">
    <!-- Generator: Sketch 64 (93537) - https://sketch.com -->
    <title>rockfield-cmyk-strap</title>
    <desc>Created with Sketch.</desc>
    <defs>
        <polygon id="path-1" points="0.171791532 0.978660714 117.288683 0.978660714 117.288683 112.077839 0.171791532 112.077839"></polygon>
    </defs>
    <g id="Symbols" stroke="none" stroke-width="1" fill="none" fill-rule="evenodd">
        <g id="LOGO" transform="translate(-2.000000, 0.000000)">
            <g id="rockfield-cmyk-strap" transform="translate(1.000000, 0.000000)">
                <path d="M203.352642,48.5973337 C203.352642,55.6280328 198.702598,60.537212 192.044442,60.537212 L174.603223,60.537212 L174.603223,37.9291761 L192.044442,37.9291761 C199.019508,37.9291761 203.352642,42.0163532 203.352642,48.5973337 Z M222.60492,48.3441809 C222.60492,34.6917983 213.449067,20 193.347632,20 L156,20 L156,111 L174.603223,111 L174.603223,78.3393153 L187.932739,78.3393153 L207.304874,111 L229,111 L206.651755,74.6810089 C216.66489,69.485916 222.60492,59.7231519 222.60492,48.3441809 L222.60492,48.3441809 Z" id="Fill-20" fill="#133D57"></path>
                <path d="M258.322005,93.9283041 C249.430837,93.9283041 242.975619,86.809207 242.975619,76.9989902 C242.975619,67.190793 249.430837,60.0716959 258.322005,60.0716959 C267.117428,60.0716959 273.025389,66.8737155 273.025389,76.9989902 C273.025389,87.1242649 267.117428,93.9283041 258.322005,93.9283041 Z M258.322005,43 C241.683568,43 224,54.9621028 224,77.1292545 C224,93.9606178 235.613345,111 257.808006,111 C274.383958,111 292,99.0378972 292,76.8707455 C292,54.6349272 275.059211,43 258.322005,43 L258.322005,43 Z" id="Fill-21" fill="#133D57"></path>
                <path d="M330.185429,60.7189783 C335.615647,60.7189783 340.04359,63.592872 342.653248,68.8125334 L342.936093,69.3770122 L362,69.3770122 L361.701387,68.0955747 C358.139716,52.8506089 345.918278,43 330.563869,43 C311.743386,43 297,57.990496 297,77.1292545 C297,96.1226017 311.466454,111 329.932151,111 C345.14563,111 357.463649,101.513929 361.313092,86.8334422 L361.658024,85.5247401 L342.47684,85.5247401 L342.181184,86.0316602 C339.429611,90.7736858 335.283527,93.2810217 330.185429,93.2810217 C321.701084,93.2810217 315.304071,86.2820909 315.304071,76.9989902 C315.304071,67.7179091 321.701084,60.7189783 330.185429,60.7189783" id="Fill-22" fill="#133D57"></path>
                <path d="M458.955924,44.4391515 L458.955924,41.4779585 C458.955924,37.7046792 462.357051,34.5188022 466.384938,34.5188022 C469.856149,34.5188022 473.207215,36.7686641 473.241256,36.7908302 L474.185401,37.4336479 L481.237958,24.265961 L480.696301,23.7188607 C480.46502,23.4861164 474.898266,18 464.717915,18 C451.052336,18 440.746833,27.6503256 440.746833,40.4472336 L440.746833,44.4391515 L409.931446,44.4391515 L389.299415,66.3664886 L388.209092,66.3664886 L388.209092,18.6498705 L370,18.6498705 L370,111 L388.209092,111 L388.209092,92.3461968 L393.859948,86.203157 L411.120889,111 L431.948158,111 L405.926587,73.0435305 L429.981772,47.0033693 L429.981772,60.0551878 L440.746833,60.0551878 L440.746833,111 L458.955924,111 L458.955924,60.0551878 L487.533596,60.0551878 L487.533596,111 L506,111 L506,44.4391515 L458.955924,44.4391515" id="Fill-23" fill="#133D57"></path>
                <path d="M530.720212,67.8178794 C533.352038,62.2962875 538.255123,59.1659044 544.37574,59.1659044 C548.710512,59.1659044 554.219866,60.7068607 556.557047,67.8178794 L530.720212,67.8178794 Z M543.863358,43 C525.128957,43 511,57.3937036 511,76.4829819 C511,96.1609742 525.347693,111 544.37574,111 C558.068224,111 569.557365,103.067003 574.359572,90.2970597 L574.887935,88.8883873 L556.749814,88.8883873 L556.444183,89.3367389 C556.410224,89.387229 552.9484,94.3160677 544.885126,94.3160677 C538.759515,94.3160677 531.646096,91.3018117 529.431767,82.9507574 L575.752892,82.9507574 L575.827801,81.9924562 C576.762673,69.9546184 573.878153,59.8970003 567.486862,52.9101871 C561.728808,46.6110484 553.117196,43 543.863358,43 L543.863358,43 Z" id="Fill-24" fill="#133D57"></path>
                <polygon id="Fill-25" fill="#133D57" points="583 111 601 111 601 20 583 20"></polygon>
                <path d="M656.43055,77.0725376 C656.43055,86.93509 651.166881,93.0624072 642.695554,93.0624072 C635.302194,93.0624072 627.342598,88.0585826 627.342598,77.0725376 C627.342598,66.0875001 635.302194,61.0846831 642.695554,61.0846831 C651.166881,61.0846831 656.43055,67.2099852 656.43055,77.0725376 Z M655.769437,18 L655.769437,48.6506929 C651.680632,45.0404022 646.332179,43.1470904 640.141943,43.1470904 C622.388795,43.1470904 609,57.7323423 609,77.0725376 C609,96.4137404 622.388795,111 640.141943,111 C647.020544,111 652.691983,108.700619 657.00486,104.163321 L657.711393,104.163321 L659.521126,110.356133 L674,110.356133 L674,18 L655.769437,18 L655.769437,18 Z" id="Fill-26" fill="#133D57"></path>
                <path d="M496.117847,18 C490.587037,18 486,22.3774798 486,28.057757 C486,33.3824519 490.587037,38 496.117847,38 C501.529811,38 506,33.3824519 506,28.057757 C506,22.3774798 501.529811,18 496.117847,18" id="Fill-27" fill="#133D57"></path>
                <path d="M41.0766845,6.20815688 C40.8365326,7.88315099 40.9517668,9.01323717 44.5985909,13 C47.4523324,10.7612213 51.5523465,8.55767904 56,6.96825939 C56,6.96825939 47.1792563,3.88632057 42.2532356,5.43546989 C41.970476,5.58648363 41.6606025,5.78405995 41.340077,6.00051298 C41.2480833,6.07350296 41.1551213,6.14649293 41.0766845,6.20815688" id="Fill-28" fill="#10344A"></path>
                <path d="M83.2385731,18.8532898 C78.0693997,20.3389886 70.4906429,22.211093 61,23.7670473 C67.2475176,28.7644916 72.7211766,33.526373 77.5089844,38 C88.3986424,34.8953235 97.0466392,30.4175639 99,23.8992931 C87.0198589,8.47096248 69.922135,0.517618271 66.9946227,0.0020663404 C66.9915879,0.0020663404 66.9733795,0 66.9733795,0 C66.4423,1.2274062 82.8835086,18.9555737 83.2385731,18.8532898" id="Fill-29" fill="#10344A"></path>
                <path d="M97.1595629,48.0628084 C96.2577829,49.5645878 95.2541122,50.9887643 94,52.2216662 C98.1975146,57.5259859 101.420878,62.1624837 103.882442,66 C105.007049,56.2635731 97.706154,47.153434 97.1595629,48.0628084" id="Fill-30" fill="#10344A"></path>
                <path d="M5.51270545,90.7685 L5.51070545,90.2315 C5.48270545,90.3975 5.47570545,90.5715 5.51270545,90.7685" id="Fill-31" fill="#10344A"></path>
                <g id="Group-35" transform="translate(11.000000, 0.000000)">
                    <mask id="mask-2" fill="white">
                        <use xlink:href="#path-1"></use>
                    </mask>
                    <g id="Clip-33"></g>
                    <path d="M0.488136752,30.072125 C-0.0786666667,31.4836161 -0.186581197,32.9284018 2.81384615,36.4626786 C4.48299145,38.236375 8.56659829,41.9098839 12.3768889,45.2625536 C13.6758974,45.1848661 15.0555897,45.1021339 16.5431966,45.0113304 C21.8451282,44.6844375 30.2604444,44.1648393 39.5178974,43.1226161 C37.0358632,41.0280804 34.478188,38.9184107 31.8257094,36.7895714 C27.0189744,32.9334464 23.0614359,29.7361518 19.9803248,27.0756071 C19.3217436,27.0927589 18.675265,27.1189911 18.0086154,27.1321071 C7.24540171,27.3379286 2.64642735,27.6617946 0.488136752,30.0711161 L0.488136752,30.072125" id="Fill-32" fill="#10344A" mask="url(#mask-2)"></path>
                    <path d="M31.8257094,36.7895714 C67.1520855,65.1344107 87.3603419,90.4645714 91.8917436,112.077839 C101.529419,107.379259 134.219453,61.9280357 106.159658,26.7012946 C99.324735,18.1213661 89.8373333,8.969375 73.4524786,3.85713393 C73.4524786,3.85713393 64.7739316,0.862633929 57.0313162,0.9816875 C62.154735,1.82716964 112.917932,26.0525536 98.1699487,73.8818214 C93.8331966,66.9676339 80.6353504,45.9274375 43.9222222,18.7428661 C30.6921026,8.94717857 30.2140513,7.91908036 30.5962906,5.86288393 C30.7798462,5.75190179 31.0239145,5.60459821 31.2064615,5.49361607 C29.7723077,6.04045536 27.9034701,6.88190179 26.4894872,7.48019643 C22.4169744,9.42238393 21.9580855,9.71194643 16.3445128,13.2603482 L12.6633162,15.9602411 C9.74558974,18.8538482 16.4292308,24.4372589 31.8257094,36.7895714" id="Fill-34" fill="#D8232A" mask="url(#mask-2)"></path>
                </g>
                <path d="M62.502666,78 C69.9504064,77.1841531 77.3401149,76.3290247 84,75.228135 C80.0636745,70.2786638 75.5529326,65.202283 70.4658073,60 C62.8715121,61.1814672 54.4165761,61.7747188 46,62.3840859 C51.4982658,67.1442001 57.2453797,72.4260534 62.502666,78" id="Fill-36" fill="#10344A"></path>
                <path d="M16.5643955,85 C21.4779306,83.0727254 28.2696668,81.6906402 36,80.5650556 C30.8528227,76.3011115 24.556569,71.2153599 16.8000518,65 C10.5742936,66.1980083 5.11895034,67.8939295 1,70.4599407 C1.86910859,73.6988885 5.32842263,77.5685259 16.5643955,85" id="Fill-37" fill="#10344A"></path>
                <path d="M109,111.058228 C105.152363,114.434785 104.729534,114.764832 101.792836,116.782664 C96.6827393,119.98234 96.265937,120.244203 92.5759813,121.989302 C87.4257112,124.160299 86.7638492,124.438961 82.3146104,125.727527 C79.0163485,126.522011 75.6066045,127.343176 70.7666763,127.779945 C65.1965908,128.143589 61.1320153,128.140625 54.3747966,127.118863 C52.1803074,126.721621 52.1803074,126.721621 51.1066649,126.485449 C49.1702919,126.034846 49.1702919,126.034846 48.2221923,125.7799 C46.4204012,125.27396 46.4204012,125.27396 45.5305534,124.994309 C43.7649187,124.415245 43.7649187,124.415245 42.887123,124.097056 C41.1094362,123.429057 41.0752885,123.416211 40.1683669,123.03972 L39.2072108,122.631608 C29.6488799,118.301472 29.2109864,112.512806 33.0164415,108.698491 C6.21454809,89.9115112 6.21454809,89.9115112 5.86503678,89.2988493 L4.85868524,86.8175687 C2.87510811,80.9439199 2.75559131,80.5931216 1.98626468,76.8776237 C1.65583588,74.8192774 1.21492937,72.0721806 1,70 C1.9280128,73.4091669 5.81582398,77.5268477 19.0379976,85.899564 C43.1773781,101.185478 53.995155,111.384322 53.995155,111.384322 C50.8595966,112.338889 49.3982777,113.34484 49.1863614,114.295454 C47.0822631,120.095979 80.5941711,130.266166 109,111.058228" id="Fill-39" fill="#D8232A"></path>
                <path d="M95.5130448,93 C89.7109638,95.1820814 83.541236,96.8950349 77.1336773,98.2583461 C78.6012917,101.052546 79.7517983,103.848706 80.4761913,106.622339 C76.2210016,107.634049 74.1270994,108.510603 61.8560201,110.25 C60.7510977,106.880898 59.6729314,104.179739 57.81686,101.342446 C52.9195271,101.909513 47.9657093,102.354156 43,102.709675 C50.8355345,108.637924 54.5110116,112.115738 54.5110116,112.115738 C51.4172291,113.061829 49.9753797,114.058849 49.7662868,115.001022 C49.6503443,115.322262 49.6602539,115.657213 49.7563772,116 C67.7453057,115.308551 86.6042987,113.208738 101,105.40006 C99.7008492,101.388477 97.8705428,97.2534917 95.5130448,93" id="Fill-40" fill="#10344A"></path>
                <path d="M31.81445,51.6965081 C31.8053718,51.7004649 17.7402533,39.9050351 14.2471735,36.266693 C11.2453238,32.801464 11.3542619,31.3839153 11.9211434,30 C10.8438667,31.6322089 9.54568773,33.8915818 8.55515802,35.57523 C6.55594223,39.3945989 6.41775224,39.77248 4.1038264,46.0945692 L3.07900136,49.6438817 C2.5625541,51.6767237 4.68684695,54.074587 6.2906578,55.8532001 L6.28763174,55.8640815 C9.86947596,59.3253536 14.1816089,62.7351865 14.1816089,62.7351865 C54.3908616,94.3298051 58.0453312,97.8929667 62.0467888,110 C74.5373484,108.24315 76.668702,107.3578 81,106.335938 C75.663042,86.0530221 48.2146768,64.5464438 31.81445,51.6965081" id="Fill-41" fill="#D8232A"></path>
            </g>
        </g>
    </g>
</svg>